<svg xmlns="http://www.w3.org/2000/svg" viewBox="0 0 433 431" width="433" height="431">
	<defs>
		<clipPath clipPathUnits="userSpaceOnUse" id="cp1">
			<path d="M344.21 341.21L406.82 278.61C441.4 244.03 441.4 187.97 406.82 153.39L344.22 90.79L281.61 28.19C247.03 -6.39 190.98 -6.39 156.4 28.19L93.8 90.79L31.19 153.4C-3.39 187.97 -3.39 244.03 31.19 278.61L93.79 341.21L156.4 403.81C190.98 438.39 247.03 438.39 281.61 403.82L344.21 341.21Z" />
		</clipPath>
	</defs>
	<style>
		tspan { white-space:pre }
		.shp0 { fill: #070707 } 
		.shp1 { fill: #ffffff } 
		.shp2 { fill: none } 
		.shp3 { fill: #e30014 } 
		.shp4 { fill: #ff0204 } 
		.shp5 { fill: #fb4003 } 
	</style>
	<g id="Layer">
		<g id="Layer">
			<path id="SVGID_1_" class="shp0" d="M219 38.93L130.47 38.93C81.56 38.93 41.92 78.56 41.92 127.46L41.92 216L41.92 304.54C41.92 353.44 81.56 393.08 130.47 393.08L219 393.08L307.54 393.08C356.44 393.08 396.08 353.44 396.08 304.54L396.08 216L396.08 127.46C396.08 78.56 356.44 38.93 307.54 38.93L219 38.93Z" />
			<g id="Clip-Path" clip-path="url(#cp1)">
				<path id="Layer" class="shp0" d="M573.15 216L219 570.15L-135.14 216L219 -138.15L573.15 216Z" />
			</g>
		</g>
		<g id="Layer">
			<path id="Layer" fill-rule="evenodd" class="shp1" d="M179.11 188.72C178.76 188.39 178.42 188.06 178.07 187.75C176.49 186.36 174.92 184.98 173.34 183.61C172.46 182.83 171.58 182.08 170.78 181.24C170.03 180.46 169.37 179.63 168.9 178.65C168.66 178.16 168.46 177.64 168.35 177.1C168.27 176.71 168.2 176.33 168.14 175.95C168.05 175.35 168.06 174.73 168.07 174.13C168.08 173.69 168.15 173.29 168.26 172.88C168.79 171.04 169.97 169.78 171.8 169.1C172.19 168.95 172.59 168.85 173.02 168.82C173.36 168.79 173.71 168.75 174.06 168.77C174.38 168.78 174.7 168.83 175.01 168.89C176.58 169.19 177.78 170.06 178.74 171.28C178.91 171.5 179.06 171.74 179.24 171.98C179.26 171.94 179.29 171.9 179.32 171.86C179.95 170.89 180.76 170.1 181.8 169.53C182.36 169.24 182.96 169.03 183.59 168.92C184.02 168.84 184.46 168.82 184.9 168.85C185.33 168.87 185.77 168.93 186.19 169.05C187.94 169.53 189.17 170.58 189.9 172.2C190.09 172.63 190.21 173.08 190.28 173.54C190.36 174.06 190.37 174.56 190.35 175.09C190.33 175.43 190.31 175.77 190.25 176.11C190.18 176.55 190.1 177 189.98 177.44C189.61 178.87 188.8 180.05 187.79 181.11C186.91 182.04 185.93 182.87 184.95 183.69C183.18 185.17 181.4 186.65 179.69 188.19C179.5 188.37 179.31 188.54 179.11 188.72Z" />
			<path id="Layer" class="shp1" d="M162.42 194.01C160.37 196.68 159.35 200.07 159.35 204.16L159.35 235.97C159.35 242.66 158.1 248.3 155.59 252.88C153.09 257.46 149.51 260.91 144.85 263.23L131.62 263.23C134.27 260.7 136.25 257.55 137.57 253.77C138.89 250 139.56 245.34 139.56 239.77L139.56 204.16C139.56 200.34 138.82 197.39 137.37 195.27L136.38 194.01L162.42 194.01L162.42 194.01Z" />
			<path id="Layer" class="shp1" d="M192.17 246.62L166.23 246.62C167.29 245.35 168.05 243.83 168.51 242.06C168.97 240.3 169.19 238.01 169.19 235.18L169.19 204.06C169.19 199.83 168.21 196.48 166.23 194L192.17 194L191.42 195.28C189.8 198.1 188.99 201.03 188.99 204.06L188.99 235.29C188.99 238.11 189.24 240.35 189.73 242.01C190.23 243.67 191.04 245.2 192.17 246.62Z" />
			<path id="Layer" fill-rule="evenodd" class="shp1" d="M252.4 227.35C249.92 235.75 243.82 241.64 234.09 245.03C232.18 245.66 230.29 246.09 228.42 246.3C226.55 246.51 223.22 246.62 218.42 246.62L196.08 246.62C197.21 245.2 197.99 243.74 198.41 242.22C198.83 240.7 199.05 238.4 199.05 235.29L199.05 186.49C199.05 181.27 198.87 177.74 198.52 175.9C198.16 174.07 197.32 172.24 195.98 170.4L221.81 170.4L221.17 171.77C220.32 173.54 219.72 175.48 219.37 177.6C219.01 179.72 218.84 182.64 218.84 186.38L218.84 202.9L222.76 198.87L226.46 194.11C227.31 193.9 228.05 193.72 228.69 193.58C229.32 193.44 229.89 193.37 230.38 193.37C230.95 193.3 231.51 193.26 232.07 193.26L233.35 193.26C239.55 193.26 244.6 195.21 248.48 199.08C252.36 202.97 254.3 208.33 254.3 215.18C254.3 218.85 253.67 222.91 252.4 227.35ZM234.51 221.95C234.51 219.06 234.38 216.64 234.14 214.7C233.89 212.76 233.4 210.94 232.66 209.25C231.92 207.56 230.92 206.23 229.69 205.28C228.46 204.33 227.13 203.85 225.73 203.85C224.24 203.85 222.79 204.38 221.38 205.43L220.43 206.07L219.59 206.81L218.84 207.45L218.84 236.34L219.9 236.56C220.39 236.63 220.85 236.66 221.28 236.66L222.02 236.66C225.68 236.66 228.58 235.47 230.7 233.06C232.82 230.67 234.09 226.96 234.51 221.95Z" />
			<path id="Layer" fill-rule="evenodd" class="shp1" d="M306.38 221.42L306.28 223.44L279.39 223.44L279.6 225.76C280.23 229.08 281.52 231.6 283.46 233.33C285.41 235.06 288.14 235.92 291.67 235.92C294.85 235.92 298.76 235.08 303.42 233.38L305.85 232.43C305.08 233.56 304.37 234.66 303.74 235.71C303.1 236.77 302.54 237.88 302.04 239.05C301.55 240.21 301.2 241.04 300.99 241.54C300.35 242.95 299.85 244.29 299.51 245.56C298.09 245.98 296.59 246.36 295.01 246.67C293.41 246.99 291.98 247.15 290.72 247.15C280.55 247.15 272.79 245.14 267.43 241.11C261.78 236.88 258.96 230.56 258.96 222.17C258.96 219.48 259.28 216.49 259.91 213.16C260.9 208.37 262.82 204.33 265.68 201.04C268.54 197.77 272.05 195.52 276.22 194.32C277.98 193.76 279.62 193.37 281.14 193.16C282.65 192.95 284.26 192.84 285.95 192.84C292.58 192.84 297.65 195.29 301.15 200.2C304.64 205.11 306.38 212.18 306.38 221.42ZM290.72 212.95C290.72 209 290.32 206.18 289.51 204.49C288.69 202.79 287.4 201.95 285.64 201.95C283.66 201.81 282.11 202.55 280.98 204.17C279.85 205.79 279.28 208.72 279.28 212.95L279.28 214.33L290.61 214.33L290.72 212.95Z" />
		</g>
		<path id="Layer" class="shp2" d="M204.6 330.66C245.38 330.66 280.9 304.57 299.01 266.27L110.19 266.27C128.31 304.57 163.83 330.66 204.6 330.66Z" />
		<g id="Layer">
			<path id="Layer" class="shp2" d="M219 57.53C176.09 57.53 138.7 91.36 119.64 141.03L318.37 141.03C299.3 91.36 261.91 57.53 219 57.53Z" />
			<path id="Layer" class="shp3" d="M310.53 289.77L312.15 285.61C320.44 264.34 324.82 240.27 324.82 216C324.82 191.73 320.44 167.66 312.15 146.39L310.53 142.23L321.2 142.23L321.84 143.96C330.08 166.44 334.26 190.68 334.26 216C334.26 241.33 330.08 265.57 321.84 288.04L321.2 289.77L310.53 289.77L310.53 289.77Z" />
			<path id="Layer" class="shp3" d="M116.8 289.77L116.17 288.04C107.92 265.57 103.74 241.32 103.74 216C103.74 190.68 107.92 166.44 116.17 143.96L116.8 142.23L127.47 142.23L125.85 146.39C117.56 167.66 113.18 191.74 113.18 216C113.18 240.26 117.56 264.34 125.85 285.61L127.47 289.77L116.8 289.77L116.8 289.77Z" />
			<path id="Layer" class="shp3" d="M110.78 216C110.78 190.38 115.46 166.25 123.68 145.15L118.36 145.15C110.55 166.43 106.14 190.51 106.14 216C106.14 241.49 110.55 265.56 118.36 286.85L123.68 286.85C115.46 265.75 110.78 241.62 110.78 216Z" />
			<g id="Layer">
				<path id="Layer" class="shp3" d="M319.65 145.15L314.32 145.15C322.55 166.25 327.22 190.38 327.22 216C327.22 241.62 322.55 265.75 314.32 286.85L319.65 286.85C327.45 265.57 331.86 241.49 331.86 216C331.86 190.51 327.45 166.44 319.65 145.15Z" />
				<g id="Layer">
					<path id="Layer" class="shp2" d="M219 408.39C267.92 408.39 310.55 367.32 332.29 307.02L105.71 307.02C127.45 367.32 170.08 408.39 219 408.39Z" />
					<path id="Layer" class="shp2" d="M219 23.61C170.08 23.61 127.45 64.68 105.71 124.98L332.29 124.98C310.55 64.68 267.93 23.61 219 23.61Z" />
					<path id="Layer" class="shp4" d="M328.44 310.1L330 305.77C339.89 278.33 345.11 247.29 345.11 216C345.11 184.71 339.89 153.67 330 126.23L328.44 121.9L340.28 121.9L340.92 123.79C350.68 152.56 355.63 183.58 355.63 216C355.63 248.41 350.68 279.44 340.92 308.21L340.28 310.1L328.44 310.1L328.44 310.1Z" />
					<path id="Layer" class="shp4" d="M338.61 124.98L332.29 124.98C342.06 152.1 347.62 183.1 347.62 216C347.62 248.9 342.06 279.9 332.29 307.02L338.61 307.02C347.89 279.67 353.13 248.74 353.13 216C353.13 183.26 347.89 152.33 338.61 124.98Z" />
					<path id="Layer" class="shp4" d="M97.72 310.1L97.08 308.21C87.32 279.44 82.37 248.42 82.37 216C82.37 183.58 87.32 152.56 97.08 123.79L97.72 121.9L109.56 121.9L108 126.23C98.11 153.67 92.88 184.7 92.88 216C92.88 247.3 98.11 278.34 108 305.77L109.56 310.1L97.72 310.1L97.72 310.1Z" />
					<path id="Layer" class="shp4" d="M90.38 216C90.38 183.1 95.94 152.1 105.71 124.98L99.39 124.98C90.11 152.33 84.87 183.26 84.87 216C84.87 248.74 90.11 279.67 99.39 307.02L105.71 307.02C95.94 279.9 90.38 248.9 90.38 216Z" />
				</g>
				<g id="Layer">
					<path id="Layer" class="shp2" d="M219 448.38C275.87 448.38 325.42 398.78 350.69 325.94L87.31 325.94C112.58 398.78 162.13 448.38 219 448.38Z" />
					<path id="Layer" class="shp2" d="M219 -16.38C162.13 -16.38 112.58 33.22 87.31 106.06L350.69 106.06C325.42 33.22 275.87 -16.38 219 -16.38Z" />
					<path id="Layer" class="shp5" d="M346.83 329.02L348.31 324.75C359.84 291.52 365.94 253.91 365.94 216C365.94 178.09 359.84 140.48 348.31 107.25L346.83 102.98L359.81 102.98L360.44 104.95C371.76 139.59 377.5 176.95 377.5 216C377.5 255.04 371.76 292.41 360.44 327.05L359.8 329.02L346.83 329.02Z" />
					<path id="Layer" class="shp5" d="M358.04 106.06L350.69 106.06C362.05 138.82 368.51 176.26 368.51 216C368.51 255.74 362.05 293.18 350.69 325.94L358.04 325.94C368.83 292.9 374.92 255.54 374.92 216C374.92 176.46 368.83 139.1 358.04 106.06Z" />
					<path id="Layer" class="shp5" d="M78.2 329.02L77.56 327.05C66.24 292.41 60.5 255.04 60.5 216C60.5 176.96 66.24 139.59 77.56 104.95L78.2 102.98L91.17 102.98L89.69 107.25C78.16 140.48 72.07 178.08 72.07 216C72.07 253.92 78.16 291.52 89.69 324.75L91.17 329.02L78.2 329.02Z" />
					<path id="Layer" class="shp5" d="M69.49 216C69.49 176.26 75.94 138.82 87.31 106.06L79.96 106.06C69.17 139.1 63.08 176.46 63.08 216C63.08 255.54 69.17 292.9 79.96 325.94L87.31 325.94C75.94 293.18 69.49 255.74 69.49 216Z" />
				</g>
			</g>
		</g>
	</g>
</svg>